<svg width="20" height="10" viewBox="0 0 20 10" fill="none" xmlns="http://www.w3.org/2000/svg">
<path d="M20 1.67627C19.8871 1.98294 19.6311 2.19956 19.3731 2.41923C16.5407 4.82686 13.7097 7.23624 10.8824 9.64866C10.5355 9.94489 10.1411 10.0832 9.66644 9.94793C9.48916 9.89747 9.31443 9.79743 9.18109 9.6839C6.24032 7.18796 3.30415 4.68854 0.370026 2.18651C-0.122997 1.76631 -0.120955 1.22215 0.361851 0.798038C0.588181 0.59925 0.81349 0.397852 1.06077 0.218639C1.47766 -0.0832401 2.0555 -0.0680157 2.47189 0.236473C2.53575 0.283452 2.59603 0.334345 2.65581 0.385238C5.04429 2.41879 7.43328 4.45191 9.82074 6.48633C9.87592 6.53331 9.92087 6.58855 10.0578 6.67685C10.0951 6.61813 10.1191 6.5481 10.1722 6.50286C12.5812 4.44843 14.9931 2.3953 17.4051 0.34261C17.8552 -0.040176 18.4755 -0.116733 18.8964 0.19863C19.3261 0.519649 19.7972 0.821528 20 1.31045L20 1.67627Z" fill="#D4D4D4"/>
</svg>
