<svg width="10" height="20" viewBox="0 0 10 20" fill="none" xmlns="http://www.w3.org/2000/svg">
<path d="M8.32373 20C8.01706 19.8871 7.80044 19.6311 7.58077 19.3731C5.17314 16.5407 2.76376 13.7097 0.351336 10.8824C0.0551118 10.5355 -0.083212 10.1411 0.0520677 9.66644C0.102526 9.48916 0.202572 9.31443 0.316103 9.18108C2.81204 6.24032 5.31146 3.30415 7.81349 0.370025C8.23369 -0.122997 8.77785 -0.120955 9.20196 0.361851C9.40075 0.58818 9.60215 0.81349 9.78136 1.06077C10.0832 1.47766 10.068 2.0555 9.76353 2.47189C9.71655 2.53575 9.66566 2.59603 9.61476 2.65581C7.58121 5.04429 5.54809 7.43328 3.51367 9.82074C3.46669 9.87591 3.41145 9.92087 3.32315 10.0578C3.38187 10.0951 3.4519 10.1191 3.49714 10.1722C5.55157 12.5812 7.6047 14.9931 9.65739 17.4051C10.0402 17.8552 10.1167 18.4755 9.80137 18.8964C9.48035 19.3261 9.17847 19.7972 8.68955 20L8.32373 20Z" fill="#1E1E1E"/>
</svg>
