<svg width="61" height="60" viewBox="0 0 61 60" fill="none" xmlns="http://www.w3.org/2000/svg">
<circle cx="30.5" cy="30" r="30" fill="url(#paint0_linear_81_665)"/>
<g clip-path="url(#clip0_81_665)">
<path d="M23.4037 30.8759C18.8052 27.7629 18.298 21.3151 22.0288 17.4828C25.4693 13.9463 31.1656 14.0034 34.5427 17.6173C38.1033 21.4261 37.6228 27.7192 33.0477 30.8725C33.308 30.9633 33.5616 31.0305 33.7919 31.1414C34.4059 31.4373 35.0232 31.7264 35.6172 32.0625C36.1245 32.3516 36.2513 32.9231 35.9676 33.3702C35.6873 33.8039 35.1434 33.9148 34.6662 33.6089C33.2813 32.7147 31.7696 32.3113 30.1245 32.3382C28.6962 32.3617 27.268 32.3281 25.8364 32.3483C21.9921 32.4021 18.6751 35.4915 18.3247 39.344C18.2613 40.0264 18.2713 40.7189 18.2713 41.4047C18.2713 41.9729 18.6184 42.3393 19.179 42.4502C22.0755 43.0083 24.9988 43.2873 27.9454 43.3108C28.0822 43.3108 28.219 43.3142 28.3558 43.331C28.8297 43.3915 29.1868 43.8016 29.1701 44.2622C29.1501 44.7732 28.793 45.1497 28.2758 45.1261C26.4304 45.0421 24.5817 44.9782 22.7429 44.8169C21.4282 44.6992 20.1234 44.4572 18.8219 44.2319C17.4971 44 16.5861 43.0452 16.4827 41.6905C16.3358 39.7609 16.4994 37.8615 17.3603 36.0865C18.595 33.5417 20.5472 31.8239 23.2235 30.9498C23.2735 30.933 23.3203 30.9128 23.407 30.8792L23.4037 30.8759ZM28.2123 16.6861C24.4315 16.6995 21.3547 19.8125 21.3614 23.6078C21.3681 27.4234 24.4682 30.5195 28.2657 30.5027C32.0166 30.4893 35.09 27.3696 35.0833 23.5843C35.0766 19.7856 31.9765 16.6693 28.209 16.6861H28.2123Z" fill="#FDFDFD"/>
<path d="M37.3792 45.1326C35.9709 45.1326 34.5627 45.1326 33.1578 45.1326C31.6728 45.1292 30.7351 44.1879 30.7351 42.6987C30.7351 41.112 30.7318 39.5252 30.7351 37.9385C30.7385 36.4694 31.6828 35.5214 33.1445 35.5181C35.9709 35.5181 38.7941 35.5181 41.6205 35.5181C43.0855 35.5181 44.0365 36.4829 44.0399 37.9688C44.0399 39.5454 44.0432 41.122 44.0399 42.6987C44.0365 44.1644 43.0888 45.1258 41.6372 45.1326C40.219 45.1393 38.8007 45.1326 37.3825 45.1326H37.3792ZM32.5438 40.4194C32.5438 41.1859 32.5438 41.9255 32.5438 42.6651C32.5438 43.1727 32.6806 43.3105 33.1778 43.3105C34.0488 43.3105 34.9198 43.3105 35.7907 43.3105C37.7129 43.3105 39.635 43.3105 41.5538 43.3105C42.071 43.3105 42.2145 43.166 42.2145 42.6583C42.2145 42.1406 42.2145 41.6229 42.2145 41.1052C42.2145 40.8766 42.2145 40.6514 42.2145 40.4228H32.5405L32.5438 40.4194ZM42.2179 38.5604C42.2179 38.3822 42.2179 38.2377 42.2179 38.0898C42.2179 37.4544 42.1144 37.3502 41.4937 37.3502C38.8575 37.3502 36.2245 37.3569 33.5883 37.3468C32.5405 37.3435 32.5171 37.3737 32.5505 38.4629C32.5505 38.4932 32.5705 38.5201 32.5838 38.5604H42.2179Z" fill="#FDFDFD"/>
</g>
<defs>
<linearGradient id="paint0_linear_81_665" x1="10.8125" y1="51.5625" x2="52.5312" y2="11.7188" gradientUnits="userSpaceOnUse">
<stop stop-color="#ECAE28"/>
<stop offset="0.394231" stop-color="#DF2641"/>
<stop offset="1" stop-color="#831464"/>
</linearGradient>
<clipPath id="clip0_81_665">
<rect width="27.6106" height="30.2655" fill="white" transform="translate(16.4292 14.8672)"/>
</clipPath>
</defs>
</svg>
