<svg width="61" height="60" viewBox="0 0 61 60" fill="none" xmlns="http://www.w3.org/2000/svg">
<circle cx="30.5" cy="30" r="30" fill="url(#paint0_linear_81_673)"/>
<g clip-path="url(#clip0_81_673)">
<path d="M44.8632 23.9917C45.8432 24.4256 46.1846 25.1935 46.1624 26.219C46.1275 27.8477 46.1415 29.4763 46.1578 31.105C46.1659 31.9994 45.8234 32.6629 45.0182 33.0887C44.9343 33.1327 44.8714 33.2928 44.869 33.4007C44.8562 34.2208 44.8644 35.041 44.862 35.86C44.8516 38.5675 42.7635 40.6799 40.0508 40.6938C36.8779 40.71 33.705 40.6996 30.5333 40.6973C29.8889 40.6973 29.4438 40.2913 29.4508 39.7275C29.4578 39.1626 29.8982 38.7786 30.5531 38.7786C33.7039 38.7774 36.8535 38.7832 40.0042 38.7751C41.4782 38.7716 42.619 37.8262 42.8928 36.4133C42.9033 36.3588 42.9185 36.3042 42.9185 36.2497C42.9196 35.2753 42.9185 34.302 42.9185 33.2859C42.7961 33.2801 42.6796 33.2708 42.5631 33.2708C41.6507 33.2696 40.7372 33.2731 39.8248 33.2696C37.2217 33.258 35.3433 31.3614 35.3107 28.7699C35.2944 27.4556 35.5705 26.2654 36.4981 25.2828C37.3568 24.3734 38.4137 23.8966 39.6686 23.8815C40.6369 23.8688 41.6052 23.8792 42.5735 23.8792C42.6819 23.8792 42.7903 23.8792 42.9033 23.8792C42.9033 22.8305 42.9884 21.8062 42.8823 20.8017C42.7367 19.4282 41.5784 18.4677 40.1592 18.3795C40.059 18.3737 39.9588 18.3726 39.8586 18.3726C33.7353 18.3726 27.6132 18.3714 21.49 18.3726C20.0789 18.3726 18.9812 19.1022 18.5886 20.3342C18.4767 20.6857 18.4324 21.0731 18.4289 21.4443C18.4138 23.3943 18.4243 25.3443 18.4196 27.2943C18.4184 27.9509 17.9908 28.3755 17.393 28.3372C16.9584 28.3093 16.5925 27.9787 16.5273 27.5495C16.5121 27.4509 16.5063 27.3512 16.5063 27.2514C16.5063 25.2457 16.4888 23.24 16.511 21.2343C16.5366 18.8551 18.1318 16.9817 20.4821 16.5386C20.8013 16.4806 21.1276 16.4643 21.4492 16.4643C27.6051 16.4597 33.761 16.4574 39.9168 16.462C42.3335 16.4632 44.2468 17.9584 44.7479 20.2425C44.8329 20.6277 44.8504 21.0325 44.8574 21.4292C44.8737 22.2819 44.862 23.1345 44.862 23.9917H44.8632ZM44.2387 25.8675C44.1012 25.8559 44.0033 25.8397 43.9054 25.8397C42.492 25.8257 41.0786 25.8002 39.6651 25.8037C38.6001 25.806 37.6691 26.4951 37.379 27.5159C37.2718 27.8917 37.2566 28.3012 37.2543 28.6956C37.2426 30.3313 38.268 31.3556 39.9075 31.3614C41.2324 31.3672 42.5561 31.3521 43.8809 31.3695C44.1885 31.373 44.2468 31.2697 44.2456 30.989C44.2328 29.394 44.2398 27.7989 44.2398 26.2039C44.2398 26.0972 44.2398 25.9893 44.2398 25.8675H44.2387Z" fill="#FDFDFD"/>
<path d="M14.3107 36.6423C14.3107 35.4684 14.3258 34.2933 14.3049 33.1193C14.2909 32.3177 14.6241 31.711 15.2417 31.2354C16.0352 30.6241 16.9627 30.319 17.9252 30.1183C20.2522 29.6346 22.571 29.659 24.8536 30.3469C25.4409 30.5243 26.0107 30.8085 26.5351 31.131C27.282 31.5904 27.6502 32.2771 27.6397 33.1912C27.6129 35.5171 27.6176 37.8441 27.6374 40.1711C27.6444 40.9994 27.3099 41.6223 26.6679 42.1072C25.8231 42.7452 24.8408 43.0607 23.8178 43.251C21.3941 43.7011 18.9867 43.6755 16.647 42.8229C16.0748 42.6141 15.5377 42.2661 15.0448 41.8996C14.5251 41.5098 14.3014 40.9321 14.3072 40.2651C14.3188 39.0575 14.3107 37.8499 14.3107 36.6423ZM16.1681 32.9128C16.5572 33.3223 16.9721 33.5033 17.402 33.646C19.0904 34.2086 20.8301 34.313 22.578 34.0694C23.3948 33.9557 24.1941 33.6924 24.9876 33.4522C25.2545 33.371 25.4782 33.1518 25.7217 32.9952C25.7217 32.9453 25.7217 32.8966 25.7217 32.8467C25.3314 32.6507 24.9573 32.4129 24.5495 32.2667C23.0359 31.7215 21.4628 31.6484 19.8746 31.7621C18.9052 31.8317 17.9532 31.9999 17.0595 32.3978C16.7635 32.5289 16.4967 32.7226 16.1704 32.914L16.1681 32.9128ZM16.2252 35.2723C16.2252 35.6806 16.2007 36.0577 16.2368 36.4289C16.252 36.5913 16.3487 36.8163 16.4768 36.8848C16.9243 37.1226 17.3857 37.358 17.8693 37.4984C19.5309 37.9787 21.2275 37.9995 22.9275 37.7548C23.7432 37.6376 24.546 37.4485 25.2661 37.024C25.4304 36.9277 25.6576 36.7757 25.6775 36.6261C25.7322 36.1876 25.6973 35.7387 25.6973 35.2804C22.0023 36.3871 19.9982 36.3859 16.2263 35.2723H16.2252ZM25.7031 39.0064C22.5174 40.0934 19.3852 40.0922 16.2531 39.0111C16.0679 40.4124 16.2275 40.6966 17.5477 41.12C19.4552 41.7313 21.3988 41.7232 23.3528 41.3915C24.0671 41.2697 24.7639 41.0725 25.3757 40.6664C25.5108 40.576 25.674 40.4182 25.6879 40.2778C25.7299 39.8625 25.7031 39.4403 25.7031 39.0076V39.0064Z" fill="#FDFDFD"/>
<path d="M25.439 23.3552C24.5499 23.3552 23.6597 23.3575 22.7706 23.3552C22.1566 23.3529 21.7429 22.9794 21.7324 22.4272C21.7208 21.8692 22.1111 21.4539 22.7229 21.4493C24.5348 21.4342 26.3479 21.4342 28.1598 21.4493C28.7552 21.4539 29.1747 21.8971 29.1572 22.4307C29.1398 22.9747 28.7156 23.3529 28.1074 23.3552C27.2183 23.3587 26.3281 23.3552 25.439 23.3552Z" fill="#FDFDFD"/>
</g>
<defs>
<linearGradient id="paint0_linear_81_673" x1="10.8125" y1="51.5625" x2="52.5312" y2="11.7188" gradientUnits="userSpaceOnUse">
<stop stop-color="#ECAE28"/>
<stop offset="0.394231" stop-color="#DF2641"/>
<stop offset="1" stop-color="#831464"/>
</linearGradient>
<clipPath id="clip0_81_673">
<rect width="31.8584" height="27.0796" fill="white" transform="translate(14.3052 16.46)"/>
</clipPath>
</defs>
</svg>
