<svg width="64" height="64" viewBox="0 0 64 64" fill="none" xmlns="http://www.w3.org/2000/svg">
<circle cx="32" cy="32" r="32" fill="url(#paint0_linear_81_280)"/>
<path d="M42.1945 34.5488C43.6105 34.5491 46.1598 35.9656 48.9914 41.0625C51.2564 45.1398 51.2569 46.7258 50.9738 48.1416C50.4074 49.3687 48.0847 52.4465 43.3273 54.9385C38.6226 57.4028 33.7144 57.8531 31.7804 57.7715C29.8459 57.8529 24.9387 57.4025 20.2345 54.9385C15.4771 52.4465 13.1555 49.3688 12.589 48.1416C12.3059 46.7257 12.3053 45.14 14.5705 41.0625C17.4023 35.9652 19.9514 34.5488 21.3674 34.5488C23.916 34.5488 24.766 36.6333 27.881 37.3809C30.3352 37.9698 31.3829 37.9802 31.717 37.959V37.9473C31.7201 37.9479 31.7406 37.948 31.7814 37.9521C31.822 37.948 31.8421 37.9478 31.8449 37.9473V37.958C32.1791 37.9792 33.2274 37.9699 35.6818 37.3809C38.7963 36.6332 39.6462 34.549 42.1945 34.5488Z" fill="#FDFDFD"/>
<circle cx="31.9999" cy="23.5042" r="11.0442" fill="#FDFDFD"/>
<defs>
<linearGradient id="paint0_linear_81_280" x1="2" y1="62" x2="61" y2="21.5" gradientUnits="userSpaceOnUse">
<stop stop-color="#ECAE28"/>
<stop offset="0.394231" stop-color="#DF2641"/>
<stop offset="1" stop-color="#831464"/>
</linearGradient>
</defs>
</svg>
