<svg width="13" height="15" viewBox="0 0 13 15" fill="none" xmlns="http://www.w3.org/2000/svg">
<path d="M7.04403 -2.60333e-07C7.09893 0.0219226 7.15483 0.0416214 7.20874 0.0657683C7.50377 0.198894 7.67278 0.420982 7.70949 0.732668C7.71809 0.805109 7.71511 0.87882 7.71511 0.952214C7.71511 4.17932 7.71511 7.40675 7.71511 10.6339L7.71511 10.8442C7.77498 10.7899 7.81334 10.7565 7.85039 10.7212C8.88662 9.72803 9.92219 8.73419 10.9591 7.74163C11.2862 7.42867 11.7168 7.33463 12.0479 7.57324C12.3522 7.79278 12.628 8.06475 12.8619 8.35452C13.0851 8.63093 13.0213 9.01983 12.7851 9.29053C12.7524 9.32802 12.7177 9.3636 12.6816 9.39792C10.8417 11.1657 9.00172 12.9335 7.16144 14.7007C6.8264 15.0226 6.41925 15.0893 6.05609 14.8786C5.97472 14.8313 5.90097 14.7681 5.83316 14.7029C3.99223 12.9364 2.15195 11.1689 0.312338 9.40078C-0.10374 9.00076 -0.104071 8.52481 0.30837 8.1248C0.440669 7.99644 0.573298 7.8684 0.706589 7.74099C1.11374 7.35305 1.6049 7.35083 2.00973 7.73972C3.05158 8.7415 4.09112 9.74487 5.13165 10.7476C5.16969 10.7841 5.21004 10.8191 5.27453 10.8775L5.27453 1.05674C5.27486 0.40732 5.39096 0.23988 6.00714 -3.05657e-07C6.35277 -2.90549e-07 6.6984 -2.75441e-07 7.04403 -2.60333e-07Z" fill="#DF2641"/>
</svg>
