<svg width="13" height="15" viewBox="0 0 13 15" fill="none" xmlns="http://www.w3.org/2000/svg">
    <path d="M5.95597 15C5.90107 14.9781 5.84517 14.9584 5.79126 14.9342C5.49623 14.8011 5.32722 14.579 5.29051 14.2673C5.28191 14.1949 5.28489 14.1212 5.28489 14.0478C5.28489 10.8207 5.28489 7.59325 5.28489 4.36614L5.28489 4.15581C5.22502 4.21014 5.18666 4.2435 5.14961 4.27877C4.11338 5.27197 3.07781 6.26581 2.04092 7.25837C1.71382 7.57133 1.28318 7.66537 0.952105 7.42676C0.647818 7.20722 0.371976 6.93525 0.138138 6.64548C-0.0851165 6.36907 -0.0212823 5.98017 0.214871 5.70947C0.247615 5.67198 0.282343 5.6364 0.318395 5.60208C2.15834 3.83427 3.99828 2.06647 5.83856 0.299294C6.1736 -0.02256 6.58075 -0.089282 6.94391 0.121368C7.02528 0.168709 7.09903 0.231936 7.16684 0.297069C9.00777 2.06361 10.848 3.8311 12.6877 5.59922C13.1037 5.99924 13.1041 6.47519 12.6916 6.8752C12.5593 7.00356 12.4267 7.1316 12.2934 7.25901C11.8863 7.64695 11.3951 7.64917 10.9903 7.26028C9.94842 6.2585 8.90888 5.25513 7.86835 4.2524C7.83031 4.21586 7.78996 4.18091 7.72547 4.12245L7.72547 13.9433C7.72514 14.5927 7.60904 14.7601 6.99286 15C6.64723 15 6.3016 15 5.95597 15Z" fill="#26DF73"/>
</svg>
